<?xml version="1.0" encoding="UTF-8"?>
<!DOCTYPE svg PUBLIC "-//W3C//DTD SVG 1.1//EN" "http://www.w3.org/Graphics/SVG/1.1/DTD/svg11.dtd">
<!-- Creator: CorelDRAW (Versão de avaliação) -->
<svg xmlns="http://www.w3.org/2000/svg" xml:space="preserve" width="420mm" height="297mm" version="1.1" style="shape-rendering:geometricPrecision; text-rendering:geometricPrecision; image-rendering:optimizeQuality; fill-rule:evenodd; clip-rule:evenodd"
viewBox="0 0 42000 29700"
 xmlns:xlink="http://www.w3.org/1999/xlink"
 xmlns:xodm="http://www.corel.com/coreldraw/odm/2003">
 <defs>
  <style type="text/css">
   <![CDATA[
    .str1 {stroke:#FEFEFE;stroke-width:7.62;stroke-miterlimit:22.9256}
    .str0 {stroke:white;stroke-width:7.62;stroke-miterlimit:22.9256}
    .fil6 {fill:#FEFEFE}
    .fil2 {fill:white}
    .fil3 {fill:#FEFEFE;fill-rule:nonzero}
    .fil4 {fill:#199CC0;fill-rule:nonzero}
    .fil5 {fill:white;fill-rule:nonzero}
    .fil1 {fill:url(#id0)}
    .fil0 {fill:url(#id1)}
   ]]>
  </style>
  <linearGradient id="id0" gradientUnits="userSpaceOnUse" x1="4279.8" y1="18773.9" x2="8865.32" y2="18311.36">
   <stop offset="0" style="stop-opacity:1; stop-color:#056687"/>
   <stop offset="0.568627" style="stop-opacity:1; stop-color:#4B9FBF"/>
   <stop offset="1" style="stop-opacity:1; stop-color:#91D8F7"/>
  </linearGradient>
  <linearGradient id="id1" gradientUnits="userSpaceOnUse" x1="6263.6" y1="11861.69" x2="6656.49" y2="15216.45">
   <stop offset="0" style="stop-opacity:1; stop-color:#00AFEF"/>
   <stop offset="1" style="stop-opacity:1; stop-color:#1BABCA"/>
  </linearGradient>
 </defs>
 <g id="Camada_x0020_1">
  <metadata id="CorelCorpID_0Corel-Layer"/>
  <g id="_2056839522160">
   <path class="fil0" d="M8396.17 9652.34l-2794.31 1791.14 -0.27 3531.54 2504.77 1494.6 826.43 -500.16 1390.33 -841.45 -7.06 -1753.18c-105.6,-29.19 -183.33,-125.76 -183.79,-240.7 -0.56,-138.49 111.25,-251.2 249.74,-251.76 138.49,-0.56 251.2,111.25 251.76,249.74 0.46,114.97 -76.53,212.18 -181.94,242.19l6.73 1671.74 814.03 -492.67 -6.79 -1686.81c-105.61,-29.19 -183.35,-125.75 -183.81,-240.7 -0.56,-138.49 111.25,-251.2 249.74,-251.76 138.49,-0.56 251.2,111.25 251.76,249.74 0.46,114.97 -76.52,212.17 -181.92,242.18l7.09 1761.53 -0.02 2.17 -2475.87 1496.43 -696.3 420.85 688.12 414 6.6 0 3322.9 -1995.81 0 -3521.67 -2817.75 -1793.33 -1.43 3765.47 -514.33 -1 -524.74 -0.05 0.33 -3762.27z"/>
   <g>
    <polygon class="fil1" points="13286.69,15861.32 13289.11,17238.49 8928.64,20053.6 4567.36,17242.59 4567.77,15866.4 8927.99,18401.65 "/>
    <polygon class="fil2" points="13288.15,15228.75 13288.39,15861.32 12254.09,16463.13 12254.09,15891.77 "/>
    <polygon class="fil2" points="4567.41,15228.68 4567.77,15866.4 5601.85,16467.67 5601.86,15891.12 "/>
   </g>
  </g>
  <g id="_2056839514576">
   <path class="fil3" d="M14464.51 17951.57c-29.4,0 -54.39,-10.29 -74.97,-30.87 -20.58,-20.58 -30.86,-45.57 -30.86,-74.96l0 -5961.94c0,-29.4 10.28,-54.39 30.86,-74.97 20.58,-20.58 45.57,-30.87 74.97,-30.87l1031.87 0c29.4,0 54.39,10.29 74.97,30.87 20.58,20.58 30.87,45.57 30.87,74.97l0 5961.94c0,29.39 -10.29,54.38 -30.87,74.96 -20.58,20.58 -45.57,30.87 -74.97,30.87l-1031.87 0z"/>
   <path class="fil4" d="M19209.37 11848.52c23.51,-47.04 67.61,-70.56 132.29,-70.56l1023.05 0c29.4,0 54.39,10.29 74.97,30.87 20.58,20.58 30.87,45.57 30.87,74.97l0 5961.94c0,29.39 -10.29,54.38 -30.87,74.96 -20.58,20.58 -45.57,30.87 -74.97,30.87l-1031.87 0c-29.4,0 -54.39,-10.29 -74.97,-30.87 -20.58,-20.58 -30.86,-45.57 -30.86,-74.96l0 -3959.93c0,-23.52 -5.88,-35.28 -17.64,-35.28 -11.76,0 -23.52,8.82 -35.28,26.46l-687.92 1217.08c-29.4,47.04 -52.91,70.56 -70.55,70.56 -17.64,0 -41.16,-23.52 -70.56,-70.56l-687.92 -1217.08c-11.75,-17.64 -23.51,-26.46 -35.27,-26.46 -11.76,0 -17.64,11.76 -17.64,35.28l0 3959.93c0,29.39 -10.29,54.38 -30.87,74.96 -20.58,20.58 -45.57,30.87 -74.97,30.87l-1031.87 0c-29.4,0 -54.39,-10.29 -74.96,-30.87 -20.58,-20.58 -30.87,-45.57 -30.87,-74.96l0 -5961.94c0,-29.4 10.29,-54.39 30.87,-74.97 20.57,-20.58 45.56,-30.87 74.96,-30.87l1014.24 0c58.79,0 102.89,23.52 132.29,70.56l784.93 1402.29c17.64,23.52 35.28,23.52 52.91,0l758.48 -1402.29zm3889.37 -79.38c323.38,0 611.48,79.38 864.3,238.13 252.83,158.75 448.32,380.7 586.49,665.87 138.18,285.16 207.26,610.01 207.26,974.54 0,546.81 -146.99,984.84 -440.97,1314.1 -293.98,329.26 -679.1,493.89 -1155.35,493.89l-661.46 0c-29.39,0 -44.09,14.7 -44.09,44.1l0 2345.97c0,29.39 -10.29,54.38 -30.87,74.96 -20.58,20.58 -45.57,30.87 -74.97,30.87l-1031.87 0c-29.4,0 -54.39,-10.29 -74.97,-30.87 -20.57,-20.58 -30.86,-45.57 -30.86,-74.96l0 -5970.76c0,-29.4 10.29,-54.39 30.86,-74.97 20.58,-20.58 45.57,-30.87 74.97,-30.87l1781.53 0zm-211.67 2716.39c188.15,0 339.55,-72.03 454.2,-216.08 114.65,-144.05 171.98,-342.48 171.98,-595.31 0,-258.7 -57.33,-461.55 -171.98,-608.54 -114.65,-146.99 -266.05,-220.49 -454.2,-220.49l-388.06 0c-29.39,0 -44.09,14.7 -44.09,44.1l0 1552.22c0,29.4 14.7,44.1 44.09,44.1l388.06 0zm5856.11 -2707.57c29.4,0 54.38,10.29 74.96,30.87 20.58,20.58 30.87,45.57 30.87,74.97l0 855.48c0,29.4 -10.29,54.39 -30.87,74.97 -20.58,20.57 -45.56,30.86 -74.96,30.86l-1102.43 0c-29.4,0 -44.1,14.7 -44.1,44.1l0 4956.53c0,29.39 -10.29,54.38 -30.87,74.96 -20.58,20.58 -45.56,30.87 -74.96,30.87l-1031.88 0c-29.4,0 -54.38,-10.29 -74.96,-30.87 -20.58,-20.58 -30.87,-45.57 -30.87,-74.96l0 -4956.53c0,-29.4 -14.7,-44.1 -44.1,-44.1l-1058.33 0c-29.4,0 -54.39,-10.29 -74.97,-30.86 -20.57,-20.58 -30.86,-45.57 -30.86,-74.97l0 -855.48c0,-29.4 10.29,-54.39 30.86,-74.97 20.58,-20.58 45.57,-30.87 74.97,-30.87l3492.5 0zm2434.17 6244.17c-529.17,0 -953.97,-166.1 -1274.41,-498.3 -320.44,-332.2 -480.66,-774.64 -480.66,-1327.33l0 -4312.7c0,-29.4 10.29,-54.39 30.87,-74.97 20.57,-20.58 45.56,-30.87 74.96,-30.87l1031.87 0c29.4,0 54.39,10.29 74.97,30.87 20.58,20.58 30.87,45.57 30.87,74.97l0 4436.17c0,188.15 47.04,341.02 141.11,458.61 94.07,117.6 217.55,176.39 370.42,176.39 152.87,0 274.87,-58.79 366,-176.39 91.14,-117.59 136.7,-270.46 136.7,-458.61l0 -4436.17c0,-29.4 10.29,-54.39 30.87,-74.97 20.58,-20.58 45.57,-30.87 74.97,-30.87l1031.87 0c29.4,0 54.39,10.29 74.97,30.87 20.58,20.58 30.86,45.57 30.86,74.97l0 4312.7c0,552.69 -160.22,995.13 -480.65,1327.33 -320.44,332.2 -742.31,498.3 -1265.59,498.3zm4083.39 0c-341.01,0 -640.87,-67.62 -899.58,-202.85 -258.7,-135.23 -458.61,-324.85 -599.72,-568.86 -141.11,-244 -211.67,-524.75 -211.67,-842.25l0 -255.77c0,-29.39 10.29,-54.38 30.87,-74.96 20.58,-20.58 45.57,-30.87 74.97,-30.87l1014.23 0c29.4,0 54.39,10.29 74.97,30.87 20.58,20.58 30.87,45.57 30.87,74.96l0 194.03c0,182.27 47.03,329.26 141.11,440.97 94.07,111.72 211.66,167.57 352.77,167.57 141.12,0 258.71,-52.91 352.78,-158.75 94.08,-105.83 141.11,-244 141.11,-414.51 0,-176.39 -58.79,-327.79 -176.39,-454.2 -117.59,-126.41 -346.89,-313.09 -687.91,-560.04 -293.98,-211.66 -532.11,-399.81 -714.38,-564.44 -182.27,-164.63 -338.08,-367.48 -467.43,-608.54 -129.35,-241.07 -194.03,-520.35 -194.03,-837.85 0,-499.77 155.81,-899.58 467.44,-1199.44 311.62,-299.86 723.19,-449.79 1234.72,-449.79 517.4,0 933.39,155.81 1247.95,467.43 314.56,311.62 471.84,720.25 471.84,1225.9l0 211.67c0,29.39 -10.29,54.38 -30.87,74.96 -20.58,20.58 -45.57,30.87 -74.97,30.87l-1014.23 0c-29.4,0 -54.39,-10.29 -74.97,-30.87 -20.58,-20.58 -30.86,-45.57 -30.86,-74.96l0 -238.13c0,-182.27 -45.57,-327.79 -136.71,-436.56 -91.13,-108.77 -210.19,-163.16 -357.18,-163.16 -141.11,0 -255.77,51.45 -343.96,154.34 -88.2,102.89 -132.29,245.47 -132.29,427.74 0,176.39 55.85,332.2 167.57,467.43 111.71,135.23 332.2,323.38 661.45,564.45 364.54,270.46 639.41,489.48 824.62,657.04 185.21,167.57 329.26,352.78 432.15,555.63 102.9,202.85 154.34,445.38 154.34,727.6 0,517.41 -158.75,928.98 -476.24,1234.72 -317.5,305.75 -734.96,458.62 -1252.37,458.62z"/>
  </g>
  <g id="_2056839514624">
   <path class="fil5 str0" d="M14571.35 19992.28c-63.97,0 -115.1,-21.36 -153.38,-64.1 -38.28,-42.73 -57.41,-99.8 -57.41,-171.2 0,-10.82 1.05,-27.05 3.15,-48.68l3.14 -34.08c2.09,-10.82 7.86,-16.23 17.3,-16.23l48.77 0c5.25,0 9.17,1.62 11.8,4.87 2.62,3.24 3.4,7.03 2.35,11.36l-4.72 30.83c-1.04,8.66 -1.57,21.1 -1.57,37.32 0,54.1 12.59,96.83 37.76,128.2 25.16,31.38 58.72,47.06 100.68,47.06 34.6,0 66.58,-10 95.95,-30.02 29.36,-20.01 52.7,-48.41 70,-85.19 17.3,-36.79 25.96,-77.9 25.96,-123.33 0,-32.46 -6.3,-61.4 -18.88,-86.82 -12.59,-25.43 -28.32,-47.6 -47.19,-66.54 -18.88,-18.93 -49.82,-47.87 -92.82,-86.82 -42.99,-37.86 -76.29,-69.23 -99.88,-94.12 -23.59,-24.88 -43,-53.82 -58.21,-86.82 -15.2,-32.99 -22.81,-70.59 -22.81,-112.78 0,-9.74 1.06,-25.42 3.15,-47.06 10.49,-83.3 40.38,-148.75 89.67,-196.36 49.29,-47.6 108.54,-71.4 177.75,-71.4 66.07,0 118.24,21.37 156.52,64.1 38.28,42.73 57.41,100.88 57.41,174.45 0,9.74 -1.04,26.51 -3.14,50.31l-4.72 40.57c-2.1,10.81 -7.87,16.22 -17.3,16.22l-50.34 0c-9.44,0 -14.16,-5.41 -14.16,-16.22l4.72 -40.57c2.09,-19.48 3.15,-33.54 3.15,-42.2 0,-51.92 -12.59,-93.58 -37.76,-124.95 -25.16,-31.37 -59.78,-47.06 -103.81,-47.06 -45.1,0 -84.43,17.04 -117.98,51.12 -33.56,34.08 -54.02,81.95 -61.35,143.61 -1.05,7.58 -1.57,18.39 -1.57,32.46 0,43.27 11.01,80.33 33.02,111.16 22.02,30.83 62.41,71.67 121.13,122.52 49.29,43.27 86.25,78.16 110.89,104.67 24.66,26.5 43.79,54.36 57.43,83.57 13.63,29.21 20.44,63.29 20.44,102.24 0,8.65 -1.04,23.8 -3.14,45.43 -10.49,88.72 -41.43,159.31 -92.81,211.78 -51.39,52.47 -113.79,78.7 -187.19,78.7zm899.78 -407.32c-2.11,10.82 -7.88,16.23 -17.31,16.23l-350.79 0c-3.15,0 -5.76,2.17 -7.87,6.49l-15.72 137.94c-1.06,6.49 -1.58,16.23 -1.58,29.21 0,42.19 11.27,76.27 33.82,102.23 22.55,25.97 53.23,38.95 92.03,38.95 35.65,0 67.64,-11.36 95.96,-34.08 28.31,-22.72 48.76,-52.47 61.34,-89.25 5.24,-9.74 11.53,-14.6 18.88,-14.6l47.19 3.24c4.2,0 7.6,1.08 10.22,3.25 2.62,2.16 3.41,5.41 2.36,9.73 0,3.25 -0.52,5.41 -1.57,6.49 -16.78,59.51 -46.66,106.3 -89.66,140.37 -43,34.08 -93.86,51.12 -152.59,51.12 -61.87,0 -110.89,-18.39 -147.08,-55.17 -36.18,-36.79 -54.26,-86.01 -54.26,-147.68 0,-8.65 1.04,-21.63 3.14,-38.94l42.47 -358.64c8.39,-71.4 36.18,-129.82 83.37,-175.26 47.2,-45.43 104.35,-68.15 171.47,-68.15 61.87,0 110.89,18.66 147.08,55.98 36.17,37.33 54.26,86.82 54.26,148.49 0,8.65 -1.05,21.63 -3.14,38.94l-22.02 193.11zm-184.06 -360.25c-42.99,0 -79.96,15.95 -110.89,47.87 -30.94,31.91 -49.55,73.29 -55.84,124.14l-14.17 123.33c0,2.17 0.53,3.79 1.58,4.87 1.05,1.08 2.1,1.62 3.15,1.62l280 0c4.19,0 6.29,-2.16 6.29,-6.49l15.74 -123.33c1.04,-6.49 1.57,-15.68 1.57,-27.59 0,-44.35 -11.54,-79.51 -34.61,-105.48 -23.07,-25.96 -54.01,-38.94 -92.82,-38.94zm759.79 -47.06c2.1,-10.82 7.86,-16.23 17.3,-16.23l50.34 0c9.43,0 14.16,5.41 14.16,16.23l-94.38 785.42c0,4.33 -1.58,8.12 -4.72,11.36 -3.15,3.25 -7.35,4.87 -12.59,4.87l-50.33 0c-4.2,0 -7.61,-1.62 -10.23,-4.87 -2.63,-3.24 -3.41,-7.03 -2.36,-11.36l6.29 -58.42c1.05,-3.24 0.79,-5.14 -0.79,-5.68 -1.57,-0.54 -3.4,0.27 -5.5,2.44 -39.85,59.5 -95.44,89.25 -166.74,89.25 -54.54,0 -97,-15.69 -127.42,-47.06 -30.41,-31.37 -45.62,-77.89 -45.62,-139.56 0,-9.74 1.05,-26.51 3.15,-50.31l67.64 -576.08c1.05,-4.33 3.14,-8.12 6.29,-11.36 3.14,-3.25 6.82,-4.87 11.01,-4.87l50.34 0c5.25,0 9.17,1.62 11.8,4.87 2.62,3.24 3.4,7.03 2.35,11.36l-66.06 556.61c-2.1,19.47 -3.15,33.54 -3.15,42.19 0,45.44 10.23,79.79 30.67,103.05 20.46,23.26 49.56,34.89 87.31,34.89 45.1,0 82.32,-17.31 111.69,-51.93 29.36,-34.62 47.71,-82.22 55.05,-142.8l64.5 -542.01zm500.23 801.65c-4.19,0 -7.6,-1.62 -10.22,-4.87 -2.63,-3.24 -3.41,-7.03 -2.37,-11.36l130.56 -1103.49c1.06,-4.33 3.16,-8.11 6.31,-11.36 3.14,-3.24 6.81,-4.87 11.01,-4.87l50.33 0c5.24,0 9.18,1.63 11.8,4.87 2.62,3.25 3.41,7.03 2.36,11.36l-132.13 1103.49c0,4.33 -1.58,8.12 -4.72,11.36 -3.16,3.25 -7.35,4.87 -12.59,4.87l-50.34 0zm431.02 -981.78c-19.93,0 -36.19,-6.49 -48.77,-19.48 -12.58,-12.98 -18.87,-30.29 -18.87,-51.92 0,-25.97 8.38,-47.61 25.16,-64.92 16.78,-17.31 37.23,-25.96 61.35,-25.96 19.93,0 36.19,6.22 48.77,18.66 12.58,12.44 18.87,28.94 18.87,49.5 0,27.04 -8.38,49.49 -25.16,67.34 -16.78,17.85 -37.24,26.78 -61.35,26.78zm-141.58 981.78c-10.49,0 -14.68,-5.41 -12.58,-16.23l92.81 -785.42c2.09,-10.82 7.86,-16.23 17.3,-16.23l50.34 0c10.49,0 14.68,5.41 12.58,16.23l-92.81 785.42c-2.1,10.82 -7.87,16.23 -17.3,16.23l-50.34 0zm978.43 -829.24c50.34,0 89.4,18.66 117.19,55.99 27.79,37.32 41.68,88.44 41.68,153.35 0,11.9 -1.04,30.83 -3.14,56.8l-66.07 546.87c0,4.33 -1.57,8.12 -4.72,11.36 -3.14,3.25 -6.81,4.87 -11.01,4.87l-51.91 0c-4.19,0 -7.6,-1.62 -10.23,-4.87 -2.61,-3.24 -3.4,-7.03 -2.35,-11.36l64.49 -538.76c2.1,-19.47 3.15,-34.08 3.15,-43.82 0,-48.68 -9.97,-86.54 -29.89,-113.59 -19.93,-27.05 -47.19,-40.57 -81.8,-40.57 -42.99,0 -78.91,17.31 -107.75,51.93 -28.84,34.62 -46.93,82.22 -54.27,142.8l-64.5 542.01c0,4.33 -1.57,8.12 -4.72,11.36 -3.14,3.25 -7.34,4.87 -12.58,4.87l-50.34 0c-4.19,0 -7.6,-1.62 -10.22,-4.87 -2.62,-3.24 -3.41,-7.03 -2.36,-11.36l64.49 -538.76c2.1,-19.47 3.15,-33.54 3.15,-42.19 0,-48.69 -9.96,-86.82 -29.88,-114.41 -19.93,-27.59 -47.2,-41.38 -81.81,-41.38 -42.99,0 -79.17,17.31 -108.54,51.93 -29.36,34.62 -47.71,82.22 -55.05,142.8l-64.5 542.01c0,4.33 -1.57,8.12 -4.72,11.36 -3.14,3.25 -7.33,4.87 -12.58,4.87l-48.77 0c-10.49,0 -14.67,-5.41 -12.58,-16.23l92.81 -785.42c2.1,-10.82 7.87,-16.23 17.31,-16.23l48.76 0c9.44,0 14.16,5.41 14.16,16.23l-7.87 60.04c0,3.25 0.78,5.14 2.36,5.68 1.57,0.54 3.41,-0.81 5.51,-4.06 22.02,-29.21 47.71,-51.39 77.07,-66.53 29.36,-15.15 59.78,-22.72 91.24,-22.72 37.75,0 69.48,10.82 95.17,32.46 25.7,21.63 44.31,52.46 55.84,92.49 0,5.41 2.63,4.33 7.86,-3.24 22.03,-40.03 50.08,-70.32 84.16,-90.88 34.09,-20.55 70.01,-30.83 107.76,-30.83zm454.61 -152.54c-19.93,0 -36.18,-6.49 -48.77,-19.48 -12.58,-12.98 -18.87,-30.29 -18.87,-51.92 0,-25.97 8.39,-47.61 25.17,-64.92 16.77,-17.31 37.23,-25.96 61.35,-25.96 19.93,0 36.18,6.22 48.76,18.66 12.59,12.44 18.88,28.94 18.88,49.5 0,27.04 -8.39,49.49 -25.17,67.34 -16.78,17.85 -37.23,26.78 -61.35,26.78zm-141.57 981.78c-10.49,0 -14.69,-5.41 -12.58,-16.23l92.8 -785.42c2.1,-10.82 7.86,-16.23 17.31,-16.23l50.33 0c10.49,0 14.69,5.41 12.59,16.23l-92.81 785.42c-2.1,10.82 -7.87,16.23 -17.3,16.23l-50.34 0zm624.49 -765.95c-2.1,10.82 -7.87,16.23 -17.3,16.23l-122.7 0c-4.2,0 -6.29,2.16 -6.29,6.49l-62.92 522.53c-2.11,21.64 -3.15,35.7 -3.15,42.19 0,37.87 7.61,64.37 22.81,79.52 15.21,15.15 39.06,22.72 71.57,22.72l15.74 0c10.48,0 14.67,5.41 12.58,16.23l-4.72 43.81c-2.1,10.82 -7.86,16.23 -17.31,16.23l-29.88 0c-50.34,0 -88.36,-10.55 -114.04,-31.64 -25.7,-21.1 -38.55,-59.78 -38.55,-116.03 0,-8.66 1.05,-25.97 3.14,-51.93l64.51 -543.63c1.04,-1.09 1.04,-2.44 0,-4.06 -1.05,-1.62 -2.63,-2.43 -4.73,-2.43l-62.92 0c-10.48,0 -14.68,-5.41 -12.58,-16.23l3.14 -35.7c2.11,-10.82 7.87,-16.23 17.31,-16.23l62.92 0c4.19,0 6.29,-2.16 6.29,-6.49l22.02 -181.75c2.1,-10.82 7.87,-16.23 17.3,-16.23l48.77 0c9.44,0 14.16,5.41 14.16,16.23l-22.02 181.75c0,4.33 1.57,6.49 4.71,6.49l122.7 0c10.49,0 14.69,5.41 12.58,16.23l-3.14 35.7zm539.55 371.61c-2.1,10.82 -7.87,16.23 -17.3,16.23l-350.79 0c-3.15,0 -5.77,2.17 -7.87,6.49l-15.72 137.94c-1.06,6.49 -1.58,16.23 -1.58,29.21 0,42.19 11.27,76.27 33.82,102.23 22.55,25.97 53.23,38.95 92.03,38.95 35.65,0 67.64,-11.36 95.95,-34.08 28.32,-22.72 48.76,-52.47 61.34,-89.25 5.25,-9.74 11.54,-14.6 18.89,-14.6l47.19 3.24c4.19,0 7.6,1.08 10.22,3.25 2.62,2.16 3.4,5.41 2.36,9.73 0,3.25 -0.53,5.41 -1.57,6.49 -16.78,59.51 -46.67,106.3 -89.67,140.37 -42.99,34.08 -93.85,51.12 -152.58,51.12 -61.88,0 -110.9,-18.39 -147.08,-55.17 -36.18,-36.79 -54.27,-86.01 -54.27,-147.68 0,-8.65 1.05,-21.63 3.14,-38.94l42.48 -358.64c8.39,-71.4 36.18,-129.82 83.37,-175.26 47.19,-45.43 104.35,-68.15 171.46,-68.15 61.88,0 110.9,18.66 147.08,55.98 36.18,37.33 54.27,86.82 54.27,148.49 0,8.65 -1.05,21.63 -3.14,38.94l-22.03 193.11zm-184.05 -360.25c-42.99,0 -79.96,15.95 -110.89,47.87 -30.94,31.91 -49.55,73.29 -55.85,124.14l-14.16 123.33c0,2.17 0.53,3.79 1.58,4.87 1.05,1.08 2.1,1.62 3.14,1.62l280.01 0c4.19,0 6.29,-2.16 6.29,-6.49l15.73 -123.33c1.05,-6.49 1.57,-15.68 1.57,-27.59 0,-44.35 -11.53,-79.51 -34.6,-105.48 -23.07,-25.96 -54.01,-38.94 -92.82,-38.94zm1099.57 360.25c-2.11,10.82 -7.88,16.23 -17.31,16.23l-350.79 0c-3.15,0 -5.76,2.17 -7.87,6.49l-15.72 137.94c-1.06,6.49 -1.58,16.23 -1.58,29.21 0,42.19 11.27,76.27 33.82,102.23 22.55,25.97 53.23,38.95 92.03,38.95 35.65,0 67.64,-11.36 95.96,-34.08 28.31,-22.72 48.76,-52.47 61.34,-89.25 5.24,-9.74 11.53,-14.6 18.88,-14.6l47.19 3.24c4.2,0 7.6,1.08 10.23,3.25 2.61,2.16 3.4,5.41 2.35,9.73 0,3.25 -0.52,5.41 -1.57,6.49 -16.78,59.51 -46.66,106.3 -89.66,140.37 -43,34.08 -93.86,51.12 -152.59,51.12 -61.87,0 -110.89,-18.39 -147.08,-55.17 -36.18,-36.79 -54.26,-86.01 -54.26,-147.68 0,-8.65 1.04,-21.63 3.14,-38.94l42.47 -358.64c8.39,-71.4 36.18,-129.82 83.37,-175.26 47.2,-45.43 104.35,-68.15 171.47,-68.15 61.87,0 110.89,18.66 147.08,55.98 36.17,37.33 54.26,86.82 54.26,148.49 0,8.65 -1.05,21.63 -3.14,38.94l-22.02 193.11zm-184.05 -360.25c-43,0 -79.97,15.95 -110.9,47.87 -30.94,31.91 -49.55,73.29 -55.84,124.14l-14.16 123.33c0,2.17 0.52,3.79 1.58,4.87 1.04,1.08 2.09,1.62 3.14,1.62l280 0c4.19,0 6.29,-2.16 6.29,-6.49l15.74 -123.33c1.04,-6.49 1.57,-15.68 1.57,-27.59 0,-44.35 -11.54,-79.51 -34.61,-105.48 -23.07,-25.96 -54.01,-38.94 -92.81,-38.94zm-28.32 -172.02c-6.29,0 -10.22,-1.89 -11.8,-5.68 -1.57,-3.78 -0.26,-8.38 3.94,-13.79l116.41 -178.51c5.23,-7.57 11.53,-11.36 18.87,-11.36l40.9 0c6.29,0 10.23,1.9 11.8,5.68 1.57,3.79 0.78,8.39 -2.36,13.8l-127.42 178.5c-5.25,7.58 -11.54,11.36 -18.87,11.36l-31.47 0zm994.17 97.37c53.49,0 94.64,17.31 123.48,51.93 28.84,34.62 43.26,83.3 43.26,146.05 0,10.82 -1.04,29.21 -3.15,55.17l-66.07 559.86c-2.09,10.82 -7.86,16.23 -17.3,16.23l-50.33 0c-10.49,0 -14.68,-5.41 -12.59,-16.23l64.5 -551.74c2.09,-19.48 3.14,-33.54 3.14,-42.2 0,-45.43 -10.23,-80.59 -30.67,-105.48 -20.45,-24.88 -50.08,-37.32 -88.88,-37.32 -44.05,0 -81.01,17.31 -110.89,51.93 -29.9,34.62 -48.51,82.22 -55.85,142.8l-64.5 542.01c-2.09,10.82 -7.86,16.23 -17.3,16.23l-50.34 0c-10.49,0 -14.68,-5.41 -12.58,-16.23l92.8 -785.42c2.11,-10.82 7.88,-16.23 17.32,-16.23l50.33 0c9.44,0 14.16,5.41 14.16,16.23l-7.86 61.66c-1.06,3.25 -0.54,4.87 1.57,4.87 2.09,0 4.19,-1.08 6.29,-3.24 41.94,-60.59 99.09,-90.88 171.46,-90.88zm497.08 842.22c-61.87,0 -110.89,-18.66 -147.08,-55.98 -36.18,-37.33 -54.26,-86.82 -54.26,-148.49 0,-8.65 1.04,-21.64 3.14,-38.94l42.47 -357.02c8.39,-71.4 36.18,-129.82 83.37,-175.26 47.19,-45.43 104.35,-68.15 171.47,-68.15 62.92,0 112.47,18.66 148.65,55.98 36.17,37.33 54.27,86.82 54.27,148.49 0,8.65 -1.06,21.63 -3.15,38.94l-42.47 357.02c-8.39,72.48 -35.92,131.17 -82.59,176.07 -46.66,44.89 -104.61,67.34 -173.82,67.34zm7.87 -76.27c44.04,0 81.79,-15.96 113.26,-47.87 31.45,-31.92 49.8,-72.76 55.05,-122.52l42.48 -348.9c1.04,-6.49 1.57,-15.14 1.57,-25.96 0,-44.36 -11.8,-79.79 -35.39,-106.29 -23.6,-26.51 -54.8,-39.76 -93.61,-39.76 -42.99,0 -79.96,15.95 -110.89,47.87 -30.94,31.91 -49.55,73.29 -55.84,124.14l-40.9 348.9c-1.06,6.49 -1.58,16.23 -1.58,29.21 0,42.19 11.27,76.27 33.82,102.23 22.55,25.97 53.23,38.95 92.03,38.95zm593.04 71.4c-60.83,0 -108.81,-16.49 -143.94,-49.49 -35.13,-33 -52.69,-76 -52.69,-129.01 0,-11.9 0.52,-21.1 1.57,-27.59l1.57 -9.74c2.1,-10.81 7.87,-16.22 17.3,-16.22l47.2 0c10.49,0 14.67,5.41 12.58,16.22l0 9.74 -1.57 17.85c0,34.62 11.53,63.02 34.61,85.2 23.07,22.18 54,33.26 92.8,33.26 40.9,0 75.25,-13.25 103.03,-39.75 27.79,-26.51 44.31,-60.86 49.56,-103.05l1.58 -19.47c0,-27.05 -6.3,-49.5 -18.89,-67.35 -12.58,-17.85 -28.05,-32.18 -46.4,-43 -18.35,-10.82 -44.31,-24.34 -77.87,-40.57 -52.43,-23.8 -92.8,-49.5 -121.12,-77.08 -28.31,-27.59 -42.47,-68.43 -42.47,-122.52 0,-74.65 22.54,-134.97 67.64,-180.94 45.09,-45.98 102.24,-68.97 171.47,-68.97 59.77,0 106.43,16.77 139.99,50.3 33.56,33.54 50.34,78.44 50.34,134.69 0,12.99 -0.53,23.26 -1.57,30.84l-1.57 4.87c0,4.32 -1.58,8.11 -4.72,11.36 -3.15,3.24 -6.82,4.86 -11.02,4.86l-47.18 0c-4.2,0 -7.61,-1.62 -10.23,-4.86 -2.63,-3.25 -3.41,-7.04 -2.37,-11.36l1.58 -8.12c4.19,-40.03 -4.98,-73.56 -27.53,-100.61 -22.54,-27.05 -53.75,-40.57 -93.6,-40.57 -44.04,0 -80.48,15.42 -109.32,46.25 -28.84,30.83 -43.26,69.51 -43.26,116.03 0,35.7 10.75,63.02 32.25,81.95 21.5,18.93 55.32,39.76 101.46,62.48 36.7,17.31 66.6,33.26 89.67,47.87 23.07,14.6 42.99,34.89 59.77,60.85 16.78,25.97 25.17,57.88 25.17,95.75 0,74.64 -22.55,134.96 -67.64,180.94 -45.1,45.97 -103.83,68.96 -176.18,68.96zm511.23 0c-60.82,0 -108.8,-16.49 -143.93,-49.49 -35.13,-33 -52.7,-76 -52.7,-129.01 0,-11.9 0.53,-21.1 1.57,-27.59l1.57 -9.74c2.11,-10.81 7.87,-16.22 17.31,-16.22l47.19 0c10.49,0 14.68,5.41 12.59,16.22l0 9.74 -1.57 17.85c0,34.62 11.53,63.02 34.6,85.2 23.07,22.18 54,33.26 92.81,33.26 40.89,0 75.25,-13.25 103.03,-39.75 27.79,-26.51 44.31,-60.86 49.55,-103.05l1.58 -19.47c0,-27.05 -6.3,-49.5 -18.88,-67.35 -12.58,-17.85 -28.05,-32.18 -46.4,-43 -18.35,-10.82 -44.31,-24.34 -77.87,-40.57 -52.43,-23.8 -92.81,-49.5 -121.12,-77.08 -28.32,-27.59 -42.48,-68.43 -42.48,-122.52 0,-74.65 22.55,-134.97 67.64,-180.94 45.1,-45.98 102.25,-68.97 171.47,-68.97 59.77,0 106.44,16.77 139.99,50.3 33.56,33.54 50.34,78.44 50.34,134.69 0,12.99 -0.52,23.26 -1.57,30.84l-1.57 4.87c0,4.32 -1.58,8.11 -4.72,11.36 -3.15,3.24 -6.81,4.86 -11.01,4.86l-47.19 0c-4.2,0 -7.61,-1.62 -10.23,-4.86 -2.62,-3.25 -3.41,-7.04 -2.36,-11.36l1.58 -8.12c4.19,-40.03 -4.98,-73.56 -27.53,-100.61 -22.55,-27.05 -53.75,-40.57 -93.6,-40.57 -44.05,0 -80.49,15.42 -109.32,46.25 -28.84,30.83 -43.27,69.51 -43.27,116.03 0,35.7 10.75,63.02 32.25,81.95 21.5,18.93 55.33,39.76 101.47,62.48 36.7,17.31 66.59,33.26 89.66,47.87 23.07,14.6 42.99,34.89 59.77,60.85 16.78,25.97 25.18,57.88 25.18,95.75 0,74.64 -22.55,134.96 -67.65,180.94 -45.09,45.97 -103.82,68.96 -176.18,68.96zm575.73 4.87c-61.87,0 -110.89,-18.66 -147.08,-55.98 -36.17,-37.33 -54.26,-86.82 -54.26,-148.49 0,-8.65 1.04,-21.64 3.14,-38.94l42.47 -357.02c8.39,-71.4 36.18,-129.82 83.37,-175.26 47.2,-45.43 104.35,-68.15 171.47,-68.15 62.92,0 112.47,18.66 148.65,55.98 36.17,37.33 54.27,86.82 54.27,148.49 0,8.65 -1.06,21.63 -3.15,38.94l-42.47 357.02c-8.39,72.48 -35.92,131.17 -82.59,176.07 -46.66,44.89 -104.61,67.34 -173.82,67.34zm7.87 -76.27c44.04,0 81.8,-15.96 113.26,-47.87 31.46,-31.92 49.81,-72.76 55.05,-122.52l42.48 -348.9c1.04,-6.49 1.57,-15.14 1.57,-25.96 0,-44.36 -11.8,-79.79 -35.39,-106.29 -23.6,-26.51 -54.8,-39.76 -93.6,-39.76 -42.99,0 -79.97,15.95 -110.9,47.87 -30.94,31.91 -49.55,73.29 -55.84,124.14l-40.9 348.9c-1.06,6.49 -1.58,16.23 -1.58,29.21 0,42.19 11.27,76.27 33.82,102.23 22.55,25.97 53.23,38.95 92.03,38.95zm1061.81 -767.57c56.63,0 101.19,18.39 133.7,55.17 32.51,36.78 48.77,85.47 48.77,146.05 0,8.66 -1.05,22.72 -3.15,42.19l-42.47 357.02c-8.39,72.48 -34.6,131.17 -78.65,176.07 -44.05,44.89 -97,67.34 -158.88,67.34 -30.42,0 -58.21,-6.49 -83.37,-19.47 -25.17,-12.98 -45.62,-31.92 -61.35,-56.8 -3.14,-5.41 -5.77,-4.87 -7.86,1.62l-42.48 363.51c-2.09,10.82 -7.86,16.22 -17.3,16.22l-50.34 0c-10.49,0 -14.68,-5.4 -12.58,-16.22l130.56 -1103.49c2.1,-10.82 7.87,-16.23 17.3,-16.23l50.34 0c10.49,0 14.69,5.41 12.58,16.23l-4.72 45.43c0,2.17 0.8,3.52 2.37,4.06 1.57,0.54 3.4,-0.27 5.5,-2.43 20.98,-24.89 45.36,-43.82 73.15,-56.8 27.79,-12.98 57.41,-19.47 88.88,-19.47zm99.1 246.66c1.04,-6.49 1.57,-16.23 1.57,-29.21 0,-42.19 -11.8,-76.27 -35.39,-102.24 -23.6,-25.96 -54.8,-38.94 -93.6,-38.94 -41.95,0 -77.86,15.68 -107.76,47.06 -29.88,31.37 -47.97,72.48 -54.26,123.33l-40.9 350.52c-1.06,6.49 -1.58,16.77 -1.58,30.83 0,42.19 11.01,76 33.04,101.43 22.02,25.42 51.9,38.13 89.66,38.13 43,0 80.22,-15.96 111.69,-47.87 31.46,-31.92 50.34,-72.76 56.63,-122.52l40.9 -350.52zm530.11 -240.17c25.17,0 46.67,5.41 64.5,16.23 6.29,5.4 7.87,12.44 4.72,21.09l-18.88 55.18c-4.19,9.73 -11.01,12.44 -20.45,8.11 -14.69,-6.49 -34.08,-9.2 -58.2,-8.11 -40.91,1.08 -76.56,22.72 -106.97,64.91 -30.42,42.19 -49.29,94.12 -56.63,155.78l-59.78 494.95c-2.09,10.82 -7.86,16.23 -17.3,16.23l-50.34 0c-10.49,0 -14.67,-5.41 -12.58,-16.23l92.8 -785.42c2.11,-10.82 7.88,-16.23 17.32,-16.23l50.33 0c9.44,0 14.16,5.41 14.16,16.23l-12.58 100.61c0,7.57 2.61,7.57 7.86,0 18.87,-38.95 41.95,-69.24 69.21,-90.88 27.27,-21.63 58.21,-32.45 92.81,-32.45zm302.02 837.35c-61.87,0 -110.89,-18.66 -147.07,-55.98 -36.18,-37.33 -54.27,-86.82 -54.27,-148.49 0,-8.65 1.05,-21.64 3.14,-38.94l42.48 -357.02c8.38,-71.4 36.17,-129.82 83.36,-175.26 47.2,-45.43 104.35,-68.15 171.47,-68.15 62.92,0 112.47,18.66 148.65,55.98 36.18,37.33 54.28,86.82 54.28,148.49 0,8.65 -1.06,21.63 -3.16,38.94l-42.46 357.02c-8.4,72.48 -35.93,131.17 -82.59,176.07 -46.67,44.89 -104.61,67.34 -173.83,67.34zm7.88 -76.27c44.03,0 81.79,-15.96 113.25,-47.87 31.46,-31.92 49.81,-72.76 55.05,-122.52l42.48 -348.9c1.05,-6.49 1.57,-15.14 1.57,-25.96 0,-44.36 -11.8,-79.79 -35.39,-106.29 -23.59,-26.51 -54.8,-39.76 -93.6,-39.76 -42.99,0 -79.96,15.95 -110.89,47.87 -30.95,31.91 -49.56,73.29 -55.85,124.14l-40.89 348.9c-1.06,6.49 -1.58,16.23 -1.58,29.21 0,42.19 11.27,76.27 33.82,102.23 22.54,25.97 53.22,38.95 92.03,38.95zm59.77 -863.32c-6.29,0 -10.23,-1.89 -11.8,-5.68 -1.57,-3.78 -0.26,-8.38 3.93,-13.79l116.4 -178.51c5.25,-7.57 11.54,-11.36 18.89,-11.36l40.89 0c6.3,0 10.23,1.9 11.8,5.68 1.57,3.79 0.79,8.39 -2.35,13.8l-127.43 178.5c-5.24,7.58 -11.53,11.36 -18.87,11.36l-31.46 0zm284.71 926.61c-5.24,0 -8.64,-1.89 -10.22,-5.68 -1.57,-3.79 -1.31,-8.38 0.78,-13.79l235.96 -384.6c2.1,-3.25 2.1,-6.49 0,-9.74l-143.14 -384.6 -1.57 -4.87c0,-9.73 5.23,-14.6 15.72,-14.6l56.63 0c10.49,0 16.26,3.79 17.3,11.36l108.55 314.82c1.05,2.16 2.62,3.24 4.71,3.24 2.1,0 3.68,-1.08 4.72,-3.24l184.05 -314.82c4.19,-7.57 11.01,-11.36 20.45,-11.36l56.63 0c5.24,0 8.65,1.89 10.22,5.68 1.57,3.79 0.79,8.38 -2.35,13.79l-232.81 384.6c-3.15,3.25 -3.68,6.49 -1.58,9.74l141.57 384.6 1.58 6.49c0,8.65 -4.72,12.98 -14.16,12.98l-56.63 0c-10.49,0 -16.26,-3.79 -17.3,-11.36l-108.54 -314.82c-1.05,-2.16 -2.63,-3.24 -4.72,-3.24 -2.1,0 -3.68,1.08 -4.72,3.24l-184.04 314.82c-4.2,7.57 -10.49,11.36 -18.89,11.36l-58.2 0zm772.37 -981.78c-19.93,0 -36.18,-6.49 -48.77,-19.48 -12.58,-12.98 -18.87,-30.29 -18.87,-51.92 0,-25.97 8.39,-47.61 25.17,-64.92 16.78,-17.31 37.23,-25.96 61.35,-25.96 19.93,0 36.18,6.22 48.76,18.66 12.59,12.44 18.88,28.94 18.88,49.5 0,27.04 -8.39,49.49 -25.17,67.34 -16.78,17.85 -37.23,26.78 -61.35,26.78zm-141.57 981.78c-10.49,0 -14.69,-5.41 -12.58,-16.23l92.8 -785.42c2.1,-10.82 7.86,-16.23 17.31,-16.23l50.33 0c10.49,0 14.69,5.41 12.59,16.23l-92.81 785.42c-2.1,10.82 -7.87,16.23 -17.3,16.23l-50.34 0zm978.42 -829.24c50.34,0 89.41,18.66 117.2,55.99 27.79,37.32 41.68,88.44 41.68,153.35 0,11.9 -1.05,30.83 -3.14,56.8l-66.07 546.87c0,4.33 -1.57,8.12 -4.72,11.36 -3.14,3.25 -6.82,4.87 -11.02,4.87l-51.9 0c-4.19,0 -7.6,-1.62 -10.23,-4.87 -2.62,-3.24 -3.4,-7.03 -2.36,-11.36l64.49 -538.76c2.11,-19.47 3.16,-34.08 3.16,-43.82 0,-48.68 -9.97,-86.54 -29.89,-113.59 -19.93,-27.05 -47.2,-40.57 -81.8,-40.57 -42.99,0 -78.92,17.31 -107.76,51.93 -28.83,34.62 -46.92,82.22 -54.26,142.8l-64.5 542.01c0,4.33 -1.57,8.12 -4.72,11.36 -3.14,3.25 -7.34,4.87 -12.58,4.87l-50.34 0c-4.19,0 -7.6,-1.62 -10.23,-4.87 -2.62,-3.24 -3.4,-7.03 -2.35,-11.36l64.49 -538.76c2.1,-19.47 3.15,-33.54 3.15,-42.19 0,-48.69 -9.97,-86.82 -29.89,-114.41 -19.93,-27.59 -47.2,-41.38 -81.8,-41.38 -42.99,0 -79.18,17.31 -108.54,51.93 -29.36,34.62 -47.71,82.22 -55.06,142.8l-64.49 542.01c0,4.33 -1.57,8.12 -4.72,11.36 -3.14,3.25 -7.34,4.87 -12.58,4.87l-48.77 0c-10.49,0 -14.68,-5.41 -12.58,-16.23l92.8 -785.42c2.11,-10.82 7.87,-16.23 17.32,-16.23l48.75 0c9.44,0 14.17,5.41 14.17,16.23l-7.88 60.04c0,3.25 0.79,5.14 2.37,5.68 1.57,0.54 3.4,-0.81 5.51,-4.06 22.02,-29.21 47.71,-51.39 77.07,-66.53 29.36,-15.15 59.78,-22.72 91.23,-22.72 37.76,0 69.49,10.82 95.17,32.46 25.7,21.63 44.31,52.46 55.85,92.49 0,5.41 2.63,4.33 7.86,-3.24 22.02,-40.03 50.08,-70.32 84.16,-90.88 34.08,-20.55 70.01,-30.83 107.75,-30.83z"/>
   <path class="fil5 str0" d="M27627.59 19992.28c-61.87,0 -110.89,-18.66 -147.08,-55.98 -36.17,-37.33 -54.26,-86.82 -54.26,-148.49 0,-8.65 1.05,-21.64 3.14,-38.94l42.48 -357.02c8.38,-71.4 36.17,-129.82 83.36,-175.26 47.2,-45.43 104.35,-68.15 171.47,-68.15 62.92,0 112.47,18.66 148.65,55.98 36.18,37.33 54.27,86.82 54.27,148.49 0,8.65 -1.05,21.63 -3.15,38.94l-42.46 357.02c-8.4,72.48 -35.93,131.17 -82.59,176.07 -46.67,44.89 -104.61,67.34 -173.83,67.34zm7.88 -76.27c44.03,0 81.79,-15.96 113.25,-47.87 31.46,-31.92 49.81,-72.76 55.05,-122.52l42.48 -348.9c1.05,-6.49 1.57,-15.14 1.57,-25.96 0,-44.36 -11.8,-79.79 -35.39,-106.29 -23.59,-26.51 -54.8,-39.76 -93.6,-39.76 -42.99,0 -79.96,15.95 -110.89,47.87 -30.95,31.91 -49.56,73.29 -55.85,124.14l-40.9 348.9c-1.05,6.49 -1.58,16.23 -1.58,29.21 0,42.19 11.28,76.27 33.83,102.23 22.54,25.97 53.22,38.95 92.03,38.95zm1061.8 -767.57c56.63,0 101.19,18.39 133.7,55.17 32.52,36.78 48.77,85.47 48.77,146.05 0,8.66 -1.04,22.72 -3.15,42.19l-42.46 357.02c-8.4,72.48 -34.61,131.17 -78.66,176.07 -44.05,44.89 -97,67.34 -158.87,67.34 -30.42,0 -58.21,-6.49 -83.38,-19.47 -25.16,-12.98 -45.62,-31.92 -61.35,-56.8 -3.14,-5.41 -5.77,-4.87 -7.86,1.62l-42.48 363.51c-2.09,10.82 -7.86,16.22 -17.3,16.22l-50.34 0c-10.49,0 -14.67,-5.4 -12.58,-16.22l130.56 -1103.49c2.11,-10.82 7.87,-16.23 17.3,-16.23l50.34 0c10.49,0 14.69,5.41 12.59,16.23l-4.73 45.43c0,2.17 0.8,3.52 2.37,4.06 1.57,0.54 3.4,-0.27 5.51,-2.43 20.97,-24.89 45.35,-43.82 73.14,-56.8 27.79,-12.98 57.42,-19.47 88.88,-19.47zm99.1 246.66c1.05,-6.49 1.57,-16.23 1.57,-29.21 0,-42.19 -11.8,-76.27 -35.39,-102.24 -23.6,-25.96 -54.8,-38.94 -93.59,-38.94 -41.96,0 -77.87,15.68 -107.76,47.06 -29.89,31.37 -47.98,72.48 -54.27,123.33l-40.9 350.52c-1.05,6.49 -1.58,16.77 -1.58,30.83 0,42.19 11.02,76 33.04,101.43 22.02,25.42 51.91,38.13 89.66,38.13 43,0 80.23,-15.96 111.69,-47.87 31.46,-31.92 50.34,-72.76 56.63,-122.52l40.9 -350.52zm402.7 597.18c-61.88,0 -110.9,-18.66 -147.08,-55.98 -36.18,-37.33 -54.27,-86.82 -54.27,-148.49 0,-8.65 1.05,-21.64 3.14,-38.94l42.48 -357.02c8.39,-71.4 36.18,-129.82 83.36,-175.26 47.2,-45.43 104.35,-68.15 171.47,-68.15 62.92,0 112.48,18.66 148.65,55.98 36.18,37.33 54.28,86.82 54.28,148.49 0,8.65 -1.06,21.63 -3.15,38.94l-42.47 357.02c-8.4,72.48 -35.93,131.17 -82.59,176.07 -46.66,44.89 -104.61,67.34 -173.82,67.34zm7.87 -76.27c44.04,0 81.79,-15.96 113.26,-47.87 31.45,-31.92 49.8,-72.76 55.05,-122.52l42.47 -348.9c1.05,-6.49 1.57,-15.14 1.57,-25.96 0,-44.36 -11.79,-79.79 -35.39,-106.29 -23.59,-26.51 -54.8,-39.76 -93.6,-39.76 -42.99,0 -79.96,15.95 -110.89,47.87 -30.94,31.91 -49.56,73.29 -55.85,124.14l-40.89 348.9c-1.06,6.49 -1.58,16.23 -1.58,29.21 0,42.19 11.27,76.27 33.82,102.23 22.54,25.97 53.22,38.95 92.03,38.95zm755.05 -765.95c53.49,0 94.65,17.31 123.49,51.93 28.84,34.62 43.26,83.3 43.26,146.05 0,10.82 -1.05,29.21 -3.15,55.17l-66.07 559.86c-2.09,10.82 -7.86,16.23 -17.3,16.23l-50.33 0c-10.49,0 -14.69,-5.41 -12.59,-16.23l64.5 -551.74c2.09,-19.48 3.14,-33.54 3.14,-42.2 0,-45.43 -10.23,-80.59 -30.67,-105.48 -20.46,-24.88 -50.08,-37.32 -88.88,-37.32 -44.05,0 -81.01,17.31 -110.9,51.93 -29.89,34.62 -48.5,82.22 -55.84,142.8l-64.5 542.01c-2.09,10.82 -7.86,16.23 -17.3,16.23l-50.34 0c-10.49,0 -14.68,-5.41 -12.58,-16.23l92.8 -785.42c2.1,-10.82 7.87,-16.23 17.31,-16.23l50.33 0c9.44,0 14.16,5.41 14.16,16.23l-7.86 61.66c-1.05,3.25 -0.53,4.87 1.57,4.87 2.1,0 4.2,-1.08 6.29,-3.24 41.95,-60.59 99.1,-90.88 171.46,-90.88zm630.8 63.29c-2.1,10.82 -7.87,16.23 -17.3,16.23l-122.7 0c-4.2,0 -6.3,2.16 -6.3,6.49l-62.92 522.53c-2.1,21.64 -3.15,35.7 -3.15,42.19 0,37.87 7.61,64.37 22.81,79.52 15.21,15.15 39.07,22.72 71.58,22.72l15.73 0c10.49,0 14.68,5.41 12.58,16.23l-4.72 43.81c-2.09,10.82 -7.86,16.23 -17.3,16.23l-29.88 0c-50.34,0 -88.36,-10.55 -114.05,-31.64 -25.7,-21.1 -38.54,-59.78 -38.54,-116.03 0,-8.66 1.05,-25.97 3.14,-51.93l64.5 -543.63c1.05,-1.09 1.05,-2.44 0,-4.06 -1.05,-1.62 -2.63,-2.43 -4.72,-2.43l-62.92 0c-10.49,0 -14.69,-5.41 -12.58,-16.23l3.14 -35.7c2.1,-10.82 7.87,-16.23 17.3,-16.23l62.92 0c4.2,0 6.29,-2.16 6.29,-6.49l22.03 -181.75c2.1,-10.82 7.87,-16.23 17.3,-16.23l48.77 0c9.44,0 14.16,5.41 14.16,16.23l-22.02 181.75c0,4.33 1.57,6.49 4.71,6.49l122.7 0c10.49,0 14.68,5.41 12.58,16.23l-3.14 35.7zm264.26 778.93c-61.87,0 -110.89,-18.66 -147.08,-55.98 -36.17,-37.33 -54.26,-86.82 -54.26,-148.49 0,-8.65 1.05,-21.64 3.14,-38.94l42.48 -357.02c8.38,-71.4 36.17,-129.82 83.36,-175.26 47.2,-45.43 104.35,-68.15 171.47,-68.15 62.92,0 112.47,18.66 148.65,55.98 36.18,37.33 54.27,86.82 54.27,148.49 0,8.65 -1.05,21.63 -3.15,38.94l-42.46 357.02c-8.4,72.48 -35.93,131.17 -82.59,176.07 -46.67,44.89 -104.62,67.34 -173.83,67.34zm7.87 -76.27c44.04,0 81.8,-15.96 113.26,-47.87 31.46,-31.92 49.81,-72.76 55.05,-122.52l42.48 -348.9c1.05,-6.49 1.57,-15.14 1.57,-25.96 0,-44.36 -11.8,-79.79 -35.39,-106.29 -23.6,-26.51 -54.8,-39.76 -93.6,-39.76 -42.99,0 -79.96,15.95 -110.9,47.87 -30.94,31.91 -49.55,73.29 -55.84,124.14l-40.9 348.9c-1.05,6.49 -1.58,16.23 -1.58,29.21 0,42.19 11.28,76.27 33.82,102.23 22.55,25.97 53.23,38.95 92.03,38.95zm1195.51 -1056.43c1.05,-4.33 3.15,-8.11 6.29,-11.36 3.16,-3.24 6.82,-4.87 11.02,-4.87l50.34 0c5.24,0 9.17,1.63 11.79,4.87 2.63,3.25 3.41,7.03 2.37,11.36l-132.14 1103.49c0,4.33 -1.57,8.12 -4.73,11.36 -3.14,3.25 -7.33,4.87 -12.58,4.87l-50.34 0c-4.18,0 -7.6,-1.62 -10.22,-4.87 -2.62,-3.24 -3.4,-7.03 -2.36,-11.36l4.72 -45.44c1.05,-2.16 0.79,-3.51 -0.78,-4.05 -1.58,-0.54 -3.41,0.27 -5.51,2.43 -20.98,24.88 -45.62,43.82 -73.93,56.8 -28.32,12.98 -57.68,19.47 -88.1,19.47 -56.62,0 -101.2,-18.66 -133.7,-55.98 -32.51,-37.33 -48.77,-86.28 -48.77,-146.87 0,-17.3 0.53,-30.29 1.57,-38.94l42.48 -358.64c8.39,-72.48 34.61,-131.17 78.65,-176.07 44.04,-44.89 97.53,-67.34 160.45,-67.34 30.41,0 57.94,6.49 82.59,19.47 24.64,12.98 44.82,31.91 60.56,56.8 1.04,2.16 2.62,2.97 4.72,2.43 2.09,-0.54 3.15,-1.89 3.15,-4.06l42.46 -363.5zm-267.41 1056.43c41.94,0 78.13,-15.69 108.54,-47.06 30.41,-31.37 48.24,-72.48 53.49,-123.33l42.46 -348.9c1.05,-6.49 1.57,-16.77 1.57,-30.83 0,-42.19 -11.01,-76.27 -33.03,-102.24 -22.02,-25.96 -51.91,-38.94 -89.66,-38.94 -44.04,0 -81.8,15.95 -113.26,47.87 -31.46,31.91 -50.33,73.29 -56.63,124.14l-40.9 348.9c-1.05,6.49 -1.57,16.23 -1.57,29.21 0,42.19 11.79,76.27 35.39,102.23 23.6,25.97 54.8,38.95 93.6,38.95zm901.35 -331.05c-2.1,10.82 -7.87,16.23 -17.3,16.23l-350.79 0c-3.15,0 -5.77,2.17 -7.87,6.49l-15.73 137.94c-1.05,6.49 -1.58,16.23 -1.58,29.21 0,42.19 11.28,76.27 33.82,102.23 22.55,25.97 53.23,38.95 92.03,38.95 35.66,0 67.65,-11.36 95.96,-34.08 28.32,-22.72 48.76,-52.47 61.34,-89.25 5.25,-9.74 11.54,-14.6 18.88,-14.6l47.19 3.24c4.2,0 7.6,1.08 10.23,3.25 2.62,2.16 3.4,5.41 2.35,9.73 0,3.25 -0.52,5.41 -1.57,6.49 -16.78,59.51 -46.66,106.3 -89.66,140.37 -42.99,34.08 -93.85,51.12 -152.59,51.12 -61.87,0 -110.89,-18.39 -147.08,-55.17 -36.17,-36.79 -54.26,-86.01 -54.26,-147.68 0,-8.65 1.05,-21.63 3.14,-38.94l42.48 -358.64c8.38,-71.4 36.17,-129.82 83.36,-175.26 47.2,-45.43 104.35,-68.15 171.47,-68.15 61.87,0 110.89,18.66 147.08,55.98 36.18,37.33 54.26,86.82 54.26,148.49 0,8.65 -1.04,21.63 -3.14,38.94l-22.02 193.11zm-184.05 -360.25c-42.99,0 -79.96,15.95 -110.89,47.87 -30.95,31.91 -49.56,73.29 -55.85,124.14l-14.16 123.33c0,2.17 0.52,3.79 1.58,4.87 1.05,1.08 2.09,1.62 3.14,1.62l280.01 0c4.18,0 6.29,-2.16 6.29,-6.49l15.73 -123.33c1.05,-6.49 1.57,-15.68 1.57,-27.59 0,-44.35 -11.54,-79.51 -34.61,-105.48 -23.07,-25.96 -54.01,-38.94 -92.81,-38.94zm967.43 -76.27c56.63,0 101.19,18.39 133.7,55.17 32.51,36.78 48.77,85.47 48.77,146.05 0,8.66 -1.05,22.72 -3.15,42.19l-42.47 357.02c-8.39,72.48 -34.6,131.17 -78.65,176.07 -44.05,44.89 -97,67.34 -158.88,67.34 -30.41,0 -58.21,-6.49 -83.37,-19.47 -25.16,-12.98 -45.62,-31.92 -61.35,-56.8 -3.14,-5.41 -5.77,-4.87 -7.86,1.62l-42.48 363.51c-2.09,10.82 -7.86,16.22 -17.3,16.22l-50.34 0c-10.49,0 -14.68,-5.4 -12.58,-16.22l130.56 -1103.49c2.1,-10.82 7.87,-16.23 17.3,-16.23l50.34 0c10.49,0 14.69,5.41 12.58,16.23l-4.72 45.43c0,2.17 0.8,3.52 2.37,4.06 1.57,0.54 3.4,-0.27 5.5,-2.43 20.98,-24.89 45.36,-43.82 73.15,-56.8 27.79,-12.98 57.42,-19.47 88.88,-19.47zm99.1 246.66c1.04,-6.49 1.57,-16.23 1.57,-29.21 0,-42.19 -11.8,-76.27 -35.39,-102.24 -23.6,-25.96 -54.8,-38.94 -93.59,-38.94 -41.96,0 -77.87,15.68 -107.77,47.06 -29.88,31.37 -47.97,72.48 -54.26,123.33l-40.9 350.52c-1.05,6.49 -1.58,16.77 -1.58,30.83 0,42.19 11.01,76 33.04,101.43 22.02,25.42 51.91,38.13 89.66,38.13 43,0 80.23,-15.96 111.69,-47.87 31.46,-31.92 50.34,-72.76 56.63,-122.52l40.9 -350.52zm641.79 -217.45c2.11,-10.82 7.88,-16.23 17.32,-16.23l50.33 0c9.44,0 14.16,5.41 14.16,16.23l-94.39 785.42c0,4.33 -1.57,8.12 -4.72,11.36 -3.14,3.25 -7.34,4.87 -12.58,4.87l-50.34 0c-4.19,0 -7.6,-1.62 -10.23,-4.87 -2.61,-3.24 -3.4,-7.03 -2.35,-11.36l7.86 -63.29c0,-3.24 -1.05,-5.14 -3.14,-5.68 -2.09,-0.54 -3.67,0.82 -4.72,4.06 -19.92,30.29 -44.57,53.55 -73.93,69.78 -29.37,16.23 -60.83,24.34 -94.39,24.34 -56.63,0 -100.67,-17.85 -132.13,-53.55 -31.47,-35.7 -47.19,-83.84 -47.19,-144.43 0,-8.65 1.05,-23.8 3.14,-45.43l42.48 -357.02c8.38,-72.48 33.82,-131.17 76.29,-176.07 42.47,-44.89 95.17,-67.34 158.09,-67.34 33.56,0 62.92,8.11 88.09,24.34 25.17,16.23 44.57,39.49 58.2,69.78 1.05,3.24 2.36,4.6 3.94,4.05 1.57,-0.54 2.88,-2.43 3.92,-5.67l6.29 -63.29zm-229.65 738.36c41.94,0 78.13,-15.69 108.53,-47.06 30.41,-31.37 48.25,-72.48 53.49,-123.33l42.47 -348.9c1.05,-6.49 1.57,-16.77 1.57,-30.83 0,-42.19 -11.01,-76.27 -33.04,-102.24 -22.01,-25.96 -51.9,-38.94 -89.65,-38.94 -44.05,0 -81.54,15.95 -112.47,47.87 -30.95,31.91 -49.56,73.29 -55.85,124.14l-40.9 348.9c-1.05,6.49 -1.58,16.23 -1.58,29.21 0,42.19 11.54,76.27 34.61,102.23 23.08,25.97 54.01,38.95 92.82,38.95zm753.48 -761.08c25.17,0 46.67,5.41 64.49,16.23 6.29,5.4 7.87,12.44 4.72,21.09l-18.87 55.18c-4.2,9.73 -11.01,12.44 -20.45,8.11 -14.69,-6.49 -34.09,-9.2 -58.2,-8.11 -40.91,1.08 -76.56,22.72 -106.97,64.91 -30.42,42.19 -49.29,94.12 -56.63,155.78l-59.78 494.95c-2.09,10.82 -7.86,16.23 -17.3,16.23l-50.34 0c-10.49,0 -14.68,-5.41 -12.58,-16.23l92.8 -785.42c2.11,-10.82 7.87,-16.23 17.31,-16.23l50.33 0c9.44,0 14.17,5.41 14.17,16.23l-12.59 100.61c0,7.57 2.62,7.57 7.86,0 18.88,-38.95 41.96,-69.24 69.22,-90.88 27.26,-21.63 58.21,-32.45 92.81,-32.45zm440.45 58.42c-2.1,10.82 -7.87,16.23 -17.3,16.23l-122.7 0c-4.2,0 -6.29,2.16 -6.29,6.49l-62.92 522.53c-2.1,21.64 -3.15,35.7 -3.15,42.19 0,37.87 7.61,64.37 22.81,79.52 15.21,15.15 39.06,22.72 71.58,22.72l15.73 0c10.49,0 14.67,5.41 12.58,16.23l-4.72 43.81c-2.09,10.82 -7.86,16.23 -17.3,16.23l-29.89 0c-50.34,0 -88.36,-10.55 -114.04,-31.64 -25.7,-21.1 -38.54,-59.78 -38.54,-116.03 0,-8.66 1.04,-25.97 3.14,-51.93l64.5 -543.63c1.04,-1.09 1.04,-2.44 0,-4.06 -1.05,-1.62 -2.63,-2.43 -4.72,-2.43l-62.92 0c-10.49,0 -14.69,-5.41 -12.59,-16.23l3.14 -35.7c2.11,-10.82 7.88,-16.23 17.31,-16.23l62.92 0c4.2,0 6.29,-2.16 6.29,-6.49l22.02 -181.75c2.11,-10.82 7.87,-16.23 17.31,-16.23l48.76 0c9.44,0 14.17,5.41 14.17,16.23l-22.03 181.75c0,4.33 1.57,6.49 4.71,6.49l122.7 0c10.49,0 14.69,5.41 12.59,16.23l-3.15 35.7zm228.09 -215.83c-19.93,0 -36.18,-6.49 -48.76,-19.48 -12.59,-12.98 -18.88,-30.29 -18.88,-51.92 0,-25.97 8.39,-47.61 25.17,-64.92 16.78,-17.31 37.23,-25.96 61.35,-25.96 19.93,0 36.18,6.22 48.76,18.66 12.59,12.44 18.88,28.94 18.88,49.5 0,27.04 -8.39,49.49 -25.17,67.34 -16.78,17.85 -37.23,26.78 -61.35,26.78zm-141.57 981.78c-10.49,0 -14.69,-5.41 -12.58,-16.23l92.8 -785.42c2.1,-10.82 7.86,-16.23 17.31,-16.23l50.33 0c10.49,0 14.69,5.41 12.59,16.23l-92.81 785.42c-2.1,10.82 -7.87,16.23 -17.3,16.23l-50.34 0zm767.64 -1119.72c1.04,-4.33 3.15,-8.11 6.29,-11.36 3.15,-3.24 6.81,-4.87 11.01,-4.87l50.34 0c5.24,0 9.18,1.63 11.8,4.87 2.62,3.25 3.41,7.03 2.36,11.36l-132.14 1103.49c0,4.33 -1.57,8.12 -4.72,11.36 -3.14,3.25 -7.34,4.87 -12.58,4.87l-50.34 0c-4.19,0 -7.6,-1.62 -10.23,-4.87 -2.62,-3.24 -3.4,-7.03 -2.35,-11.36l4.72 -45.44c1.04,-2.16 0.78,-3.51 -0.79,-4.05 -1.58,-0.54 -3.41,0.27 -5.5,2.43 -20.98,24.88 -45.62,43.82 -73.94,56.8 -28.31,12.98 -57.67,19.47 -88.09,19.47 -56.63,0 -101.2,-18.66 -133.7,-55.98 -32.52,-37.33 -48.77,-86.28 -48.77,-146.87 0,-17.3 0.52,-30.29 1.57,-38.94l42.48 -358.64c8.38,-72.48 34.6,-131.17 78.65,-176.07 44.04,-44.89 97.52,-67.34 160.45,-67.34 30.4,0 57.93,6.49 82.58,19.47 24.64,12.98 44.83,31.91 60.56,56.8 1.05,2.16 2.63,2.97 4.72,2.43 2.09,-0.54 3.15,-1.89 3.15,-4.06l42.47 -363.5zm-267.42 1056.43c41.95,0 78.13,-15.69 108.54,-47.06 30.41,-31.37 48.25,-72.48 53.49,-123.33l42.47 -348.9c1.04,-6.49 1.57,-16.77 1.57,-30.83 0,-42.19 -11.01,-76.27 -33.04,-102.24 -22.01,-25.96 -51.91,-38.94 -89.65,-38.94 -44.05,0 -81.81,15.95 -113.26,47.87 -31.47,31.91 -50.34,73.29 -56.63,124.14l-40.91 348.9c-1.05,6.49 -1.57,16.23 -1.57,29.21 0,42.19 11.8,76.27 35.39,102.23 23.61,25.97 54.8,38.95 93.6,38.95zm865.17 -738.36c2.1,-10.82 7.87,-16.23 17.31,-16.23l50.33 0c9.44,0 14.16,5.41 14.16,16.23l-94.38 785.42c0,4.33 -1.57,8.12 -4.73,11.36 -3.14,3.25 -7.33,4.87 -12.58,4.87l-50.34 0c-4.18,0 -7.6,-1.62 -10.22,-4.87 -2.62,-3.24 -3.4,-7.03 -2.36,-11.36l7.86 -63.29c0,-3.24 -1.04,-5.14 -3.14,-5.68 -2.09,-0.54 -3.67,0.82 -4.72,4.06 -19.92,30.29 -44.57,53.55 -73.93,69.78 -29.36,16.23 -60.83,24.34 -94.39,24.34 -56.63,0 -100.66,-17.85 -132.13,-53.55 -31.46,-35.7 -47.19,-83.84 -47.19,-144.43 0,-8.65 1.05,-23.8 3.14,-45.43l42.48 -357.02c8.39,-72.48 33.82,-131.17 76.29,-176.07 42.48,-44.89 95.17,-67.34 158.09,-67.34 33.56,0 62.92,8.11 88.1,24.34 25.16,16.23 44.57,39.49 58.2,69.78 1.04,3.24 2.35,4.6 3.93,4.05 1.57,-0.54 2.88,-2.43 3.93,-5.67l6.29 -63.29zm-229.66 738.36c41.94,0 78.13,-15.69 108.54,-47.06 30.41,-31.37 48.24,-72.48 53.49,-123.33l42.46 -348.9c1.05,-6.49 1.57,-16.77 1.57,-30.83 0,-42.19 -11.01,-76.27 -33.03,-102.24 -22.02,-25.96 -51.91,-38.94 -89.66,-38.94 -44.04,0 -81.54,15.95 -112.47,47.87 -30.94,31.91 -49.55,73.29 -55.85,124.14l-40.89 348.9c-1.06,6.49 -1.58,16.23 -1.58,29.21 0,42.19 11.53,76.27 34.6,102.23 23.08,25.97 54.02,38.95 92.82,38.95zm456.18 56.8c-19.92,0 -36.18,-6.22 -48.76,-18.66 -12.59,-12.44 -18.89,-28.94 -18.89,-49.5 0,-27.04 8.4,-49.49 25.18,-67.34 16.78,-17.85 37.74,-26.78 62.92,-26.78 19.92,0 35.91,6.49 47.97,19.47 12.06,12.99 18.09,30.3 18.09,51.93 0,25.97 -8.38,47.6 -25.16,64.91 -16.78,17.31 -37.24,25.97 -61.35,25.97z"/>
  </g>
  <path class="fil6 str1" d="M8236.47 16547l-130.11 -77.38 2216.76 -1341.61 -7.05 -1752.37c-105.63,-29.08 -179.9,-110.01 -183.79,-240.44 -1.94,-64.9 24.81,-128.72 69.87,-175.77 45.48,-47.46 109.65,-77.84 179.86,-77.06 15.58,0.17 30.94,1.26 46.2,4.06 36.43,6.69 71.44,21.31 100.87,42.84 23.72,17.34 44.89,38.6 61.3,62.82 27.92,41.18 43.4,90.54 43.64,140.66 0.62,126.68 -76.34,212.25 -181.72,242.36l6.27 1670.93 814.02 -492.67 -6.78 -1686.74c-105.64,-29.09 -183.48,-125.58 -184.04,-240.53 -0.36,-72.62 29.96,-137.79 79.07,-183.81 44.53,-41.74 104.6,-67.88 170.44,-68.18 44.73,-0.2 87.81,11.78 125.3,32.65 30.43,16.93 56.52,40.61 76.71,67.55 32.61,43.51 50.39,96.46 50.2,149.33 -0.46,126.71 -76.54,212.22 -181.92,242.33l7.07 1763.75 -3172.17 1917.28z"/>
 </g>
</svg>
